<svg xmlns="http://www.w3.org/2000/svg" width="437" height="124" viewBox="0 0 437 124"><path fill="#F9423A" fill-rule="evenodd" d="M48.039 123.314c32.76 0 48.332-19.394 48.332-44.66h.148V.646a.633.633 0 0 0-.589-.589H68.753a.633.633 0 0 0-.587.589v74.036c0 16.164-7.052 24.534-20.568 24.534-13.516 0-19.244-8.374-19.244-24.534V.646a.633.633 0 0 0-.587-.589H.587A.631.631 0 0 0 0 .646v78.008c0 26.444 15.279 44.66 48.039 44.66Zm141.594-29.509h-73.781v24.145h73.781a.634.634 0 0 0 .594-.591v-22.96a.637.637 0 0 0-.594-.594Zm-73.781-46.88h60.741a.65.65 0 0 1 .6.6v22.862a.644.644 0 0 1-.6.6h-60.741V46.925ZM189.53.057h-73.678v24.116h73.678a.64.64 0 0 0 .592-.591V.65a.635.635 0 0 0-.592-.593Z" clip-rule="evenodd"></path><path fill="currentColor" fill-rule="evenodd" d="M275.017 0a3.668 3.668 0 0 1 3.642 3.643 3.667 3.667 0 0 1-7.333 0A3.679 3.679 0 0 1 275.017 0Zm-2.963 11.559h5.875v23.9h-5.877l.002-23.9Zm-38.132 18.844c1.991-2.962 2.526-6.845 2.526-12.045l.005-18.067h-5.973v18.16c0 3.837-.292 6.46-1.41 8.354-1.262 2.185-3.497 3.545-7.188 3.545-4.078 0-6.265-1.651-7.43-3.692-1.02-1.792-1.36-4.171-1.36-8.3V.291h-6.174v18.457c0 4.759.534 8.645 2.477 11.559 2.332 3.545 6.605 5.681 12.239 5.681 5.44 0 9.86-1.991 12.288-5.585Zm15.012-18.844h-5.828l.001 23.895h5.876V19.231a9.071 9.071 0 0 1 6.266-3.01 3.9 3.9 0 0 1 3.156 1.311c.68.781.972 1.944.972 4.081v13.841h5.878V20.593c0-3.542-.631-5.542-2.039-7.042a8.337 8.337 0 0 0-6.314-2.526 11.774 11.774 0 0 0-7.868 3.157l-.1-.049v-2.574Zm39.342 0h-6.217l9.859 23.9h5.783l9.81-23.9h-5.973l-3.546 8.791a410.286 410.286 0 0 0-3.156 8.062h-.1a370.686 370.686 0 0 0-3.06-8.11l-3.4-8.743Zm26.763 13.55c.728 3.982 3.885 6.022 7.915 6.022a14.214 14.214 0 0 0 8.159-2.768v5.391a17.436 17.436 0 0 1-8.742 2.234c-7.674 0-13.308-4.954-13.308-12.433a12.098 12.098 0 0 1 7.431-11.596 12.095 12.095 0 0 1 4.76-.934c5.925 0 11.171 4.031 11.171 11.7.004.796-.045 1.592-.147 2.381l-17.239.003Zm11.9-4.08a5.599 5.599 0 0 0-5.731-5.246 6.157 6.157 0 0 0-6.168 5.246h11.899Zm16.951-9.47h-5.828l-.001 23.893h5.877V20.451a7.82 7.82 0 0 1 6.654-3.545 7.568 7.568 0 0 1 1.943.243v-5.633a5.995 5.995 0 0 0-1.6-.2 8.354 8.354 0 0 0-6.945 3.643l-.1-.048v-3.352Zm12.143 16.95a18.877 18.877 0 0 0 9.277 2.671c2.671 0 4.371-.777 4.371-2.574 0-1.89-1.931-2.218-4.55-2.662-.677-.115-1.401-.238-2.15-.398-4.566-.972-7.674-2.574-7.674-6.9.049-5 4.371-7.625 10.1-7.625a20.37 20.37 0 0 1 8.839 1.894v5.342a19.321 19.321 0 0 0-8.839-2.428c-2.526 0-4.177.728-4.177 2.38 0 1.791 1.936 2.115 4.531 2.549.642.107 1.323.22 2.026.365 4.565.971 7.819 2.428 7.819 6.993 0 5.391-4.76 7.868-10.393 7.868a21.41 21.41 0 0 1-9.18-1.991v-5.484Zm30.349-27.433A3.67 3.67 0 0 0 383.816 0a3.681 3.681 0 0 0-3.696 3.643 3.666 3.666 0 0 0 6.26 2.593 3.666 3.666 0 0 0 1.074-2.593 3.673 3.673 0 0 0-1.072-2.567Zm.348 10.483h-5.876v23.9h5.876v-23.9Zm21.371 23.313a10.542 10.542 0 0 1-4.856 1.117 7.657 7.657 0 0 1-5.829-2.335c-1.214-1.312-1.943-3.3-1.943-6.848V16.561h-4.177v-5h4.177V5.197l5.876-1.02v7.382h6.751v5h-6.747v9.425c0 2.671.486 4.9 3.157 4.9a7.945 7.945 0 0 0 3.594-1.019l-.003 5.007Zm12.046-2.04-6.362 13.306 6.121-.003 15.881-34.58h-5.974l-3.108 6.9-.059.133c-1.151 2.58-2.343 5.254-3.441 7.88h-.1c-1.015-2.527-1.986-4.759-3.2-7.527l-3.255-7.383h-6.362l9.859 21.273Zm-201.571 25.86c7.431 0 12.967 5.439 12.967 12.482 0 7.043-5.536 12.481-12.967 12.481-7.431 0-12.967-5.439-12.967-12.476 0-7.037 5.536-12.482 12.967-12.482v-.005Zm0 19.82a7.337 7.337 0 1 0-7.091-7.333 7.076 7.076 0 0 0 1.981 5.18 7.072 7.072 0 0 0 5.11 2.153Zm146.358-7.03c0-7.043-5.536-12.482-12.967-12.482v.005c-7.431 0-12.967 5.445-12.967 12.482 0 7.037 5.536 12.476 12.967 12.476 7.431 0 12.967-5.438 12.967-12.481Zm-8.825 6.223a7.337 7.337 0 0 1-4.142 1.115 7.063 7.063 0 0 1-7.091-7.333 7.34 7.34 0 0 1 8.86-7.18 7.337 7.337 0 0 1 2.373 13.398ZM238.151 64.227h-3.594v-5h3.594v-4.08c0-3.206.583-5.877 2.331-7.576a8.83 8.83 0 0 1 6.168-2.089 11.801 11.801 0 0 1 3.836.582v4.953a15.827 15.827 0 0 0-3.3-.437c-2.622 0-3.156 1.749-3.156 4.031v4.614h5.829v5h-5.829V83.12h-5.877l-.002-18.893Zm48.909-16.269h-20.981v35.163h21.468v-5.489h-15.3V67.481h12.873v-5.293h-12.873v-8.742h14.813v-5.488Zm21.956 32.492a11.253 11.253 0 0 1-7.77 3.2 8.464 8.464 0 0 1-6.362-2.525c-1.457-1.6-2.138-3.788-2.138-7.236V59.226h5.878v13.7c0 2.137.34 3.4 1.069 4.226a3.96 3.96 0 0 0 3.157 1.311 8.684 8.684 0 0 0 6.216-3.109V59.226h5.877v23.895h-5.828v-2.623l-.099-.048Zm18.7-21.224h-5.827l-.001 23.902h5.876V68.12a7.818 7.818 0 0 1 6.653-3.545 7.576 7.576 0 0 1 1.943.243v-5.633a6.003 6.003 0 0 0-1.6-.2 8.359 8.359 0 0 0-6.944 3.64l-.1-.047v-3.352Zm48.087 34.579h-5.876V59.226h5.827v1.36l.1.049a10.993 10.993 0 0 1 6.362-1.943c6.265 0 11.413 4.9 11.413 12.335 0 7.674-5.537 12.627-12.482 12.627-1.81.022-3.601-.36-5.245-1.116l-.1.048.001 11.219Zm4.954-15.055c4.274 0 6.946-3.157 6.946-7.382s-2.623-7.625-6.8-7.625a8.304 8.304 0 0 0-5.1 1.748v11.947c1.517.84 3.22 1.292 4.954 1.312Zm30.696.051c-4.031 0-7.187-2.04-7.916-6.022l17.241-.003c.101-.79.15-1.585.146-2.381 0-7.669-5.246-11.7-11.171-11.7a12.095 12.095 0 0 0-12.19 12.53c0 7.479 5.634 12.433 13.308 12.433a17.432 17.432 0 0 0 8.741-2.234v-5.391a14.212 14.212 0 0 1-8.159 2.768Zm2.176-13.88a5.598 5.598 0 0 1 1.808 3.778h-11.899a6.156 6.156 0 0 1 6.168-5.246 5.6 5.6 0 0 1 3.923 1.468ZM211.231 106.87h-2.073v-1.31h2.073v-2.7a4.69 4.69 0 0 1 1.038-3.5 3.729 3.729 0 0 1 2.617-.932c.535 0 1.068.076 1.581.227v1.335a6.058 6.058 0 0 0-1.531-.2c-1.827 0-2.247 1.159-2.247 2.873v2.9h3.382v1.31h-3.383v11.088h-1.457V106.87Zm16.563-.589a6.473 6.473 0 0 0-3.647-1.004 6.241 6.241 0 0 0-4.535 1.89 6.247 6.247 0 0 0-1.765 4.586 6.476 6.476 0 0 0 4.041 6.003 6.482 6.482 0 0 0 7.082-1.485 6.473 6.473 0 0 0 1.289-7.12 6.477 6.477 0 0 0-2.465-2.87Zm-.726 9.866c-.88.528-1.897.78-2.921.723a4.868 4.868 0 0 1-4.84-5.117 5.123 5.123 0 1 1 7.761 4.394Zm6.737-10.592h1.457v2.016l.049.026a4.942 4.942 0 0 1 3.927-2.167c.24-.002.48.023.715.076v1.436a3.578 3.578 0 0 0-.765-.076 4.626 4.626 0 0 0-3.926 2.42v8.668h-1.457v-12.399Zm21.659-5.846h-1.433l-7.431 18.245h1.549l2.2-5.443h8.766l2.2 5.443h1.63l-7.481-18.245Zm-.692 1.865a440.883 440.883 0 0 0 1.975 5.015l1.803 4.511h-7.63l1.828-4.536c.74-1.84 1.358-3.402 1.975-4.99h.049Zm12.028 21.924h-1.457v-17.943h1.457v1.059l.049.025a6.192 6.192 0 0 1 3.828-1.36c3.383 0 5.876 2.7 5.876 6.451 0 3.83-2.592 6.5-6.1 6.5a6.461 6.461 0 0 1-3.606-1.083l-.049.025.002 6.326Zm3.657-6.577c2.79 0 4.642-2.142 4.642-5.116 0-2.923-1.827-5.191-4.618-5.191a5.35 5.35 0 0 0-3.679 1.487v7.535a6.009 6.009 0 0 0 3.655 1.285Zm9.482 6.577h1.457l-.001-6.326.049-.025a6.461 6.461 0 0 0 3.606 1.083c3.508 0 6.1-2.67 6.1-6.5 0-3.751-2.494-6.451-5.877-6.451a6.192 6.192 0 0 0-3.828 1.36l-.049-.025v-1.059h-1.457v17.943Zm9.754-11.694c0 2.974-1.852 5.116-4.642 5.116a6.009 6.009 0 0 1-3.655-1.285V108.1a5.35 5.35 0 0 1 3.679-1.487c2.791 0 4.618 2.268 4.618 5.191Zm4.842-13.104h1.457v19.254h-1.457V98.7Zm5.806 3.491c.191.125.414.191.642.189a1.135 1.135 0 0 0 1.052-.698c.057-.138.085-.287.084-.436a1.145 1.145 0 0 0-.702-1.07 1.15 1.15 0 0 0-1.503 1.501c.088.21.237.389.427.514Zm1.386 3.364h-1.461l.004 12.4h1.457v-12.4Zm4.811 6.605a4.907 4.907 0 0 0 5.161 4.738 6.67 6.67 0 0 0 4.075-1.436v1.613a8.106 8.106 0 0 1-4.173 1.159 6.236 6.236 0 0 1-6.494-6.476c0-3.831 2.716-6.477 6-6.477 2.939 0 5.383 2.142 5.383 5.821 0 .378-.025.756-.05 1.059l-9.902-.001Zm8.519-1.235c-.074-3.326-2.371-4.309-4-4.309a4.583 4.583 0 0 0-4.469 4.309h8.469Zm9.808 7.306a5.765 5.765 0 0 0 3.9-1.461l.053.029v1.159h1.457V98.704h-1.457v7.434l-.049.026a7.62 7.62 0 0 0-3.457-.882c-3.847 0-6.247 3.046-6.247 6.7 0 3.805 2.565 6.249 5.8 6.249Zm.492-11.617a6.794 6.794 0 0 1 3.457 1.008v7.711a5.148 5.148 0 0 1-3.729 1.563c-2.79 0-4.569-2.115-4.569-5.015 0-2.923 1.828-5.267 4.841-5.267Zm14.722 8.401a8.764 8.764 0 0 0 5.284 1.8c2.4 0 4.149-1.161 4.149-3.482 0-2.577-2.189-3.181-4.448-3.804l-.17-.047c-2.568-.717-5.086-1.655-5.086-4.89 0-3.062 2.222-4.79 5.456-4.79a9.376 9.376 0 0 1 5.013 1.406v1.63a8.974 8.974 0 0 0-5.037-1.63c-2.321 0-3.926 1.112-3.926 3.285 0 2.446 2.079 3.02 4.216 3.609l.254.07c2.543.715 5.234 1.655 5.234 5.087 0 3.135-2.3 4.963-5.655 4.963a9.884 9.884 0 0 1-5.284-1.506v-1.701Zm19.657 3.21a7.333 7.333 0 0 0 3.63-.913v-1.589a5.739 5.739 0 0 1-3.556 1.16 4.815 4.815 0 0 1-3.61-1.374 4.815 4.815 0 0 1-1.428-3.589 4.875 4.875 0 0 1 1.414-3.631 4.881 4.881 0 0 1 3.624-1.431 6.34 6.34 0 0 1 3.358.988v-1.531a7.271 7.271 0 0 0-3.308-.79 6.276 6.276 0 0 0-4.655 1.785 6.298 6.298 0 0 0-1.422 2.112 6.296 6.296 0 0 0-.466 2.503 6.133 6.133 0 0 0 1.838 4.548 6.135 6.135 0 0 0 4.581 1.752Zm7.879-15.531a1.128 1.128 0 0 1-1.029-.705 1.117 1.117 0 0 1 .257-1.221 1.127 1.127 0 0 1 1.226-.23 1.128 1.128 0 0 1 .347 1.839 1.118 1.118 0 0 1-.801.317Zm-.716 3.112h1.457v12.149h-1.457v-12.149Zm6.734 8.335a4.87 4.87 0 0 1-.462-1.863l9.903-.003c.024-.297.05-.666.05-1.037 0-3.6-2.445-5.7-5.384-5.7a6.031 6.031 0 0 0-4.354 1.892 6.05 6.05 0 0 0-1.646 4.453 6.182 6.182 0 0 0 1.856 4.597 6.16 6.16 0 0 0 4.638 1.75 8.23 8.23 0 0 0 4.173-1.136v-1.581a6.76 6.76 0 0 1-4.074 1.407 4.872 4.872 0 0 1-4.7-2.779Zm4.057-7.296c1.629 0 3.926.963 4 4.223h-8.47a4.55 4.55 0 0 1 4.47-4.223Zm8.892-1.04h1.457v1.7l.049.024a6.93 6.93 0 0 1 4.667-2 4.105 4.105 0 0 1 3.111 1.234 4.874 4.874 0 0 1 1.087 3.63v7.556h-1.457v-7.284a4.089 4.089 0 0 0-.765-2.914 3.002 3.002 0 0 0-2.272-.864 6.29 6.29 0 0 0-4.42 2.173v8.889h-1.457v-12.144Zm20.103 12.42a7.333 7.333 0 0 0 3.63-.913v-1.589a5.74 5.74 0 0 1-3.556 1.16 4.807 4.807 0 0 1-5.037-4.963 4.875 4.875 0 0 1 1.414-3.63 4.839 4.839 0 0 1 1.662-1.094 4.85 4.85 0 0 1 1.961-.338 6.34 6.34 0 0 1 3.358.988v-1.531a7.275 7.275 0 0 0-3.309-.79 6.276 6.276 0 0 0-4.655 1.785 6.298 6.298 0 0 0-1.422 2.112 6.296 6.296 0 0 0-.466 2.503 6.15 6.15 0 0 0 1.838 4.548 6.14 6.14 0 0 0 4.582 1.752Zm7.705-5.947a4.87 4.87 0 0 0 5.162 4.642 6.76 6.76 0 0 0 4.074-1.407v1.581a8.23 8.23 0 0 1-4.173 1.136 6.176 6.176 0 0 1-6.494-6.347 6.05 6.05 0 0 1 6-6.345c2.939 0 5.384 2.1 5.384 5.7 0 .371-.026.74-.05 1.037l-9.903.003Zm8.52-1.21c-.074-3.26-2.371-4.223-4-4.223a4.547 4.547 0 0 0-4.47 4.223h8.47Zm8.793 5.823a8.703 8.703 0 0 1-4.592-1.284l-.002 1.557a9.618 9.618 0 0 0 4.519 1.062c2.938 0 4.889-1.231 4.889-3.631 0-2.568-2.245-3.161-4.445-3.507l-.397-.063c-1.703-.266-3.403-.533-3.403-2.11 0-1.383 1.31-2.049 3.21-2.049a8.475 8.475 0 0 1 4.42 1.234v-1.531a9.51 9.51 0 0 0-4.371-1.037c-2.766 0-4.717 1.182-4.717 3.482 0 2.469 2.297 3.062 4.321 3.383l.327.05c1.8.274 3.6.548 3.6 2.271 0 1.457-1.309 2.173-3.359 2.173Z" clip-rule="evenodd" style="color:var(#63666A, --cs-text-default)"></path></svg>