<svg aria-hidden="true" class="b_svg b_svg--logo-berlin-applied-science" viewBox="0 0 755 168"> <g fill="none" fill-rule="evenodd"> <path class="logoMain" fill="currentColor" d="M141.5 136.5h20V.5h-20v136zm44.107-91.93c-3.756-.186-8.431 0-13.107.555v18.732c17.6 0 24.018 2.609 24.018 19.109V136.5H216.5V80.468c0-20.685-11.642-35.157-30.893-35.899zm-137.73.991C26.493 46.673 17 60.935 17 83.627v45.76c0 13.336-2.674 19.08-16.499 19.358v18.513c1.658.28 4.33.28 5.714.186 21.477-1.296 30.878-15.652 30.878-38.066v-45.76c0-13.428 2.49-19.078 16.408-19.356V45.654c-1.569-.186-4.24-.186-5.623-.093zm62.002 0C88.93 46.671 79.5 60.994 79.5 83.545V136.5h19.769V83.536c0-13.307 2.629-19.037 16.231-19.314V45.654c-1.633-.186-4.26-.186-5.621-.093z"></path> <path class="logoMeta" fill="currentColor" fill-rule="nonzero" d="M305.891 82c4.692 0 8.236-.876 10.633-2.626 2.397-1.751 3.596-4.225 3.596-7.421 0-4.624-2.278-7.48-6.834-8.568 1.564-.68 2.796-1.674 3.697-2.983.901-1.31 1.352-2.882 1.352-4.718 0-3.026-1.071-5.346-3.213-6.962-2.142-1.614-5.338-2.422-9.588-2.422h-13.566V82h13.923zm-.561-21.369h-5.661V52.93h5.559c3.468 0 5.202 1.292 5.202 3.876 0 2.55-1.7 3.825-5.1 3.825zm1.02 14.739h-6.681v-8.364h7.089c1.802 0 3.145.374 4.029 1.122.884.748 1.326 1.768 1.326 3.06s-.485 2.312-1.454 3.06c-.969.748-2.405 1.122-4.309 1.122zm30.851 7.497c2.856 0 5.278-.519 7.267-1.556 1.99-1.037 3.613-2.541 4.871-4.513l-5.814-3.774c-.782 1.258-1.674 2.159-2.677 2.703-1.004.544-2.117.816-3.341.816-1.768 0-3.238-.459-4.411-1.377-1.173-.918-1.93-2.21-2.27-3.876h19.278v-2.703c0-2.516-.553-4.769-1.657-6.758a12.302 12.302 0 00-4.616-4.717c-1.972-1.156-4.284-1.734-6.936-1.734-2.584 0-4.904.612-6.962 1.836a13.519 13.519 0 00-4.87 4.922c-1.19 2.056-1.785 4.343-1.785 6.859 0 2.652.603 5.023 1.81 7.114a13.23 13.23 0 004.973 4.948c2.108 1.206 4.488 1.81 7.14 1.81zm5.406-16.728h-11.628c.442-1.36 1.173-2.44 2.193-3.238 1.02-.8 2.261-1.199 3.723-1.199 1.53 0 2.788.408 3.774 1.224.986.816 1.632 1.887 1.938 3.213zM361.116 82V67.618c0-1.598.502-2.856 1.505-3.774 1.002-.918 2.337-1.377 4.003-1.377.51 0 .994.017 1.453.051.46.034.893.085 1.301.153v-6.426a15.58 15.58 0 00-1.836-.331c-.68-.086-1.36-.128-2.04-.128-3.434 0-6.23.969-8.39 2.907-2.159 1.938-3.238 4.811-3.238 8.619V82h7.242zm19.172.357c.68 0 1.258-.025 1.734-.076.476-.052 1.02-.145 1.632-.281v-6.018a13.557 13.557 0 01-1.632.102c-.85 0-1.505-.221-1.964-.663-.459-.442-.688-1.156-.688-2.142V45.025h-7.242v28.764c0 2.754.74 4.87 2.219 6.35 1.478 1.479 3.459 2.218 5.941 2.218zm9.992-28.662c1.258 0 2.312-.416 3.162-1.25.85-.833 1.275-1.861 1.275-3.085s-.425-2.252-1.275-3.085c-.85-.834-1.904-1.25-3.162-1.25s-2.312.416-3.162 1.25c-.85.833-1.275 1.861-1.275 3.085s.425 2.252 1.275 3.086c.85.833 1.904 1.249 3.162 1.249zM393.901 82V56.245h-7.242V82h7.242zm11.777 0V67.21c0-1.632.442-2.898 1.326-3.8.884-.9 2.04-1.351 3.468-1.351s2.584.45 3.468 1.352c.884.9 1.326 2.167 1.326 3.799V82h7.242V67.108c0-3.74-1.063-6.63-3.188-8.67s-5.074-3.06-8.848-3.06c-3.774 0-6.724 1.02-8.849 3.06s-3.187 4.93-3.187 8.67V82h7.242zm50.074.969c3.264 0 6.077-.646 8.44-1.938 2.363-1.292 4.183-3.137 5.457-5.534 1.276-2.397 1.913-5.21 1.913-8.44V46.3h-7.803v20.757c0 2.686-.706 4.751-2.117 6.197-1.41 1.444-3.374 2.167-5.89 2.167-2.482 0-4.411-.723-5.788-2.168-1.377-1.445-2.066-3.51-2.066-6.196V46.3h-7.803v20.757c0 3.23.629 6.043 1.887 8.44 1.258 2.397 3.06 4.242 5.406 5.534 2.346 1.292 5.134 1.938 8.364 1.938zM484.257 82V67.21c0-1.632.442-2.898 1.326-3.8.884-.9 2.04-1.351 3.468-1.351s2.584.45 3.468 1.352c.884.9 1.326 2.167 1.326 3.799V82h7.242V67.108c0-3.74-1.063-6.63-3.188-8.67s-5.074-3.06-8.848-3.06c-3.774 0-6.724 1.02-8.849 3.06s-3.187 4.93-3.187 8.67V82h7.242zm24.986-28.305c1.258 0 2.312-.416 3.162-1.25.85-.833 1.275-1.861 1.275-3.085s-.425-2.252-1.275-3.085c-.85-.834-1.904-1.25-3.162-1.25s-2.312.416-3.162 1.25c-.85.833-1.275 1.861-1.275 3.085s.425 2.252 1.275 3.086c.85.833 1.904 1.249 3.162 1.249zM512.864 82V56.245h-7.242V82h7.242zm20.039 0l9.894-25.755h-7.752l-5.814 16.83-5.865-16.83h-8.007L525.304 82h7.599zm25.292.867c2.856 0 5.278-.519 7.267-1.556 1.99-1.037 3.613-2.541 4.871-4.513l-5.814-3.774c-.782 1.258-1.674 2.159-2.678 2.703-1.003.544-2.116.816-3.34.816-1.768 0-3.238-.459-4.411-1.377-1.173-.918-1.93-2.21-2.27-3.876h19.278v-2.703c0-2.516-.553-4.769-1.657-6.758a12.302 12.302 0 00-4.616-4.717c-1.972-1.156-4.284-1.734-6.936-1.734-2.584 0-4.904.612-6.962 1.836a13.519 13.519 0 00-4.87 4.922c-1.19 2.056-1.785 4.343-1.785 6.859 0 2.652.603 5.023 1.81 7.114a13.23 13.23 0 004.973 4.948c2.108 1.206 4.488 1.81 7.14 1.81zm5.406-16.728h-11.628c.442-1.36 1.173-2.44 2.193-3.238 1.02-.8 2.261-1.199 3.723-1.199 1.53 0 2.788.408 3.774 1.224.986.816 1.632 1.887 1.938 3.213zM582.11 82V67.618c0-1.598.501-2.856 1.505-3.774 1.002-.918 2.337-1.377 4.003-1.377.51 0 .994.017 1.453.051.46.034.893.085 1.301.153v-6.426a15.58 15.58 0 00-1.836-.331c-.68-.086-1.36-.128-2.04-.128-3.434 0-6.23.969-8.39 2.907-2.159 1.938-3.238 4.811-3.238 8.619V82h7.242zm21.161.867c3.468 0 6.188-.782 8.16-2.346 1.972-1.564 2.958-3.74 2.958-6.528 0-4.42-2.89-7.038-8.67-7.854l-3.264-.459c-1.564-.238-2.346-.935-2.346-2.091 0-.68.323-1.215.969-1.606.646-.391 1.496-.587 2.55-.587 2.108 0 3.876.85 5.304 2.55l4.743-3.876c-1.054-1.428-2.49-2.567-4.31-3.417a13.394 13.394 0 00-5.737-1.275c-3.298 0-5.933.765-7.905 2.295-1.972 1.53-2.958 3.57-2.958 6.12 0 4.59 2.72 7.293 8.16 8.109l3.672.561c1.666.238 2.499.901 2.499 1.989 0 .748-.323 1.335-.969 1.76-.646.424-1.564.637-2.754.637-2.55 0-4.743-1.071-6.579-3.213l-4.998 4.029c.986 1.564 2.524 2.822 4.615 3.774 2.092.952 4.378 1.428 6.86 1.428zm19.019-29.172c1.258 0 2.312-.416 3.162-1.25.85-.833 1.275-1.861 1.275-3.085s-.425-2.252-1.275-3.085c-.85-.834-1.904-1.25-3.162-1.25s-2.312.416-3.162 1.25c-.85.833-1.275 1.861-1.275 3.085s.425 2.252 1.275 3.086c.85.833 1.904 1.249 3.162 1.249zM625.911 82V56.245h-7.242V82h7.242zm14.276.459c.85 0 1.615-.043 2.295-.127.68-.085 1.377-.196 2.091-.332v-6.018c-.408.034-.858.068-1.351.102-.493.034-.927.051-1.301.051-1.326 0-2.32-.264-2.984-.79-.663-.528-.994-1.454-.994-2.78v-10.2h6.528v-6.12h-6.528v-6.834h-7.242v23.154c0 3.332.833 5.814 2.499 7.446 1.666 1.632 3.995 2.448 6.987 2.448zm19.478 11.781c3.978 0 7.098-1.241 9.359-3.723 2.26-2.482 3.391-5.899 3.391-10.251V56.398h-7.242v13.26c0 1.734-.442 3.085-1.326 4.055-.884.969-2.125 1.453-3.723 1.453-1.53 0-2.703-.476-3.519-1.428-.816-.952-1.224-2.312-1.224-4.08V56.245h-7.242v14.127c0 3.672.867 6.528 2.601 8.568s4.148 3.06 7.242 3.06c1.462 0 2.805-.263 4.029-.79a9.257 9.257 0 003.162-2.219v2.091c0 4.318-1.836 6.477-5.508 6.477-1.36 0-2.49-.23-3.391-.688-.902-.46-1.743-1.233-2.525-2.321l-5.661 3.672c1.02 1.938 2.533 3.425 4.539 4.463 2.006 1.037 4.352 1.555 7.038 1.555zm-356.171 42.627c2.618 0 4.955-.603 7.012-1.81a13.46 13.46 0 004.897-4.922c1.207-2.074 1.81-4.42 1.81-7.038 0-2.618-.603-4.956-1.81-7.012a13.52 13.52 0 00-4.897-4.896c-2.056-1.207-4.394-1.811-7.012-1.811-2.584 0-4.913.603-6.987 1.81a13.46 13.46 0 00-4.921 4.897c-1.208 2.056-1.811 4.394-1.811 7.012 0 2.618.603 4.964 1.81 7.038a13.4 13.4 0 004.922 4.922c2.074 1.207 4.403 1.81 6.987 1.81zm0-6.936c-1.836 0-3.349-.646-4.539-1.938-1.19-1.292-1.785-2.924-1.785-4.896 0-2.006.595-3.638 1.785-4.896s2.703-1.887 4.539-1.887c1.802 0 3.306.629 4.513 1.887 1.207 1.258 1.811 2.89 1.811 4.896 0 1.972-.603 3.604-1.81 4.896-1.207 1.292-2.712 1.938-4.514 1.938zM328.225 136v-19.635h6.426v-6.12h-6.426v-1.173c0-1.462.34-2.525 1.02-3.188.68-.662 1.751-.994 3.213-.994.374 0 .765.008 1.173.025.408.017.782.06 1.122.128v-6.018a22.676 22.676 0 00-1.683-.306 15.97 15.97 0 00-2.346-.153c-2.992 0-5.363.892-7.114 2.677-1.752 1.785-2.627 4.293-2.627 7.523V136h7.242zm27.889 0l2.346-6.222h14.688l2.295 6.222h8.772l-14.178-35.7h-8.007L347.852 136h8.262zm14.484-13.107h-9.588l4.845-12.903 4.743 12.903zm23.609 24.582v-13.974c1.836 2.244 4.335 3.366 7.497 3.366 2.244 0 4.301-.578 6.171-1.734 1.87-1.156 3.366-2.771 4.488-4.845 1.122-2.074 1.683-4.454 1.683-7.14 0-2.754-.578-5.16-1.734-7.216-1.156-2.058-2.745-3.664-4.769-4.82-2.022-1.156-4.377-1.734-7.063-1.734-2.72 0-5.091.57-7.115 1.709-2.023 1.138-3.595 2.736-4.717 4.793-1.122 2.058-1.683 4.48-1.683 7.268v24.327h7.242zm6.171-17.544c-1.734 0-3.196-.62-4.386-1.862-1.19-1.24-1.785-2.779-1.785-4.615v-.612c0-1.224.272-2.329.816-3.315a6.263 6.263 0 012.218-2.346c.935-.578 1.981-.867 3.137-.867 1.836 0 3.34.638 4.514 1.913 1.173 1.274 1.759 2.915 1.759 4.921 0 1.972-.587 3.596-1.76 4.87-1.173 1.276-2.677 1.913-4.513 1.913zm24.17 17.544v-13.974c1.836 2.244 4.335 3.366 7.497 3.366 2.244 0 4.301-.578 6.171-1.734 1.87-1.156 3.366-2.771 4.488-4.845 1.122-2.074 1.683-4.454 1.683-7.14 0-2.754-.578-5.16-1.734-7.216-1.156-2.058-2.745-3.664-4.769-4.82-2.023-1.156-4.377-1.734-7.063-1.734-2.72 0-5.092.57-7.115 1.709-2.023 1.138-3.595 2.736-4.717 4.793-1.122 2.058-1.683 4.48-1.683 7.268v24.327h7.242zm6.171-17.544c-1.734 0-3.196-.62-4.386-1.862-1.19-1.24-1.785-2.779-1.785-4.615v-.612c0-1.224.272-2.329.816-3.315a6.263 6.263 0 012.219-2.346c.934-.578 1.98-.867 3.136-.867 1.836 0 3.34.638 4.514 1.913 1.173 1.274 1.759 2.915 1.759 4.921 0 1.972-.587 3.596-1.76 4.87-1.173 1.276-2.677 1.913-4.513 1.913zm25.343 6.426c.68 0 1.258-.025 1.734-.077.476-.05 1.02-.144 1.632-.28v-6.018a13.557 13.557 0 01-1.632.102c-.85 0-1.505-.221-1.964-.663-.459-.442-.688-1.156-.688-2.142V99.025h-7.242v28.764c0 2.754.74 4.87 2.219 6.35 1.478 1.478 3.459 2.218 5.941 2.218zm9.992-28.662c1.258 0 2.312-.416 3.162-1.25.85-.832 1.275-1.861 1.275-3.085s-.425-2.252-1.275-3.085c-.85-.834-1.904-1.25-3.162-1.25s-2.312.416-3.162 1.25c-.85.832-1.275 1.861-1.275 3.085s.425 2.252 1.275 3.085c.85.834 1.904 1.25 3.162 1.25zM469.675 136v-25.755h-7.242V136h7.242zm17.693.867c2.856 0 5.279-.518 7.267-1.555 1.99-1.038 3.613-2.542 4.871-4.514l-5.814-3.774c-.782 1.258-1.675 2.159-2.678 2.703-1.002.544-2.116.816-3.34.816-1.768 0-3.238-.459-4.411-1.377-1.173-.918-1.93-2.21-2.27-3.876h19.278v-2.703c0-2.516-.553-4.769-1.658-6.758a12.302 12.302 0 00-4.615-4.717c-1.972-1.156-4.284-1.734-6.936-1.734-2.584 0-4.904.612-6.962 1.836a13.519 13.519 0 00-4.87 4.921c-1.19 2.057-1.785 4.344-1.785 6.86 0 2.652.603 5.023 1.81 7.114a13.23 13.23 0 004.973 4.947c2.108 1.207 4.488 1.811 7.14 1.811zm5.406-16.728h-11.628c.442-1.36 1.173-2.44 2.193-3.239 1.02-.799 2.261-1.198 3.723-1.198 1.53 0 2.788.408 3.774 1.224.986.816 1.632 1.887 1.938 3.213zm24.068 16.728c2.72 0 5.091-.57 7.115-1.708 2.023-1.14 3.595-2.737 4.717-4.794 1.122-2.058 1.683-4.48 1.683-7.268V99.025h-7.242v13.719c-1.836-2.244-4.335-3.366-7.497-3.366-2.21 0-4.259.578-6.146 1.734-1.886 1.156-3.391 2.763-4.513 4.82-1.122 2.056-1.683 4.445-1.683 7.165 0 2.72.578 5.117 1.734 7.191 1.156 2.074 2.754 3.689 4.794 4.845 2.04 1.156 4.386 1.734 7.038 1.734zm.102-6.936c-1.836 0-3.34-.646-4.513-1.938-1.174-1.292-1.76-2.924-1.76-4.896 0-2.006.586-3.638 1.76-4.896 1.172-1.258 2.677-1.887 4.513-1.887 1.734 0 3.196.62 4.386 1.862 1.19 1.24 1.785 2.779 1.785 4.615v.612c0 1.224-.272 2.329-.816 3.315a6.263 6.263 0 01-2.218 2.346c-.936.578-1.981.867-3.137.867zm43.495 7.038c4.42 0 7.888-1.02 10.404-3.06s3.774-4.828 3.774-8.364c0-2.89-.892-5.236-2.678-7.038-1.784-1.802-4.394-2.992-7.828-3.57l-4.182-.714c-1.87-.34-3.196-.808-3.978-1.403-.782-.594-1.173-1.436-1.173-2.524 0-1.224.553-2.227 1.658-3.009 1.104-.782 2.507-1.173 4.207-1.173 3.468 0 5.882 1.326 7.242 3.978l6.069-3.57c-1.088-2.21-2.822-3.961-5.202-5.253-2.38-1.292-5.083-1.938-8.109-1.938-2.72 0-5.117.468-7.191 1.403-2.074.934-3.697 2.235-4.87 3.901s-1.76 3.587-1.76 5.763c0 2.924.91 5.321 2.729 7.191 1.818 1.87 4.462 3.094 7.93 3.672l3.621.612c2.006.34 3.442.816 4.31 1.428.866.612 1.3 1.479 1.3 2.601 0 1.258-.57 2.27-1.708 3.034-1.14.766-2.661 1.148-4.565 1.148-1.802 0-3.434-.4-4.896-1.198a8.971 8.971 0 01-3.468-3.341l-6.069 4.08c1.292 2.346 3.196 4.156 5.712 5.431 2.516 1.275 5.423 1.913 8.721 1.913zm31.004-.102c2.516 0 4.769-.535 6.758-1.606 1.988-1.071 3.561-2.593 4.717-4.565l-5.967-3.876c-1.292 2.074-3.111 3.111-5.457 3.111-1.87 0-3.4-.638-4.59-1.913-1.19-1.274-1.785-2.915-1.785-4.921 0-2.006.595-3.638 1.785-4.896s2.72-1.887 4.59-1.887c2.312 0 4.131.986 5.457 2.958l5.916-3.876a12.294 12.294 0 00-4.794-4.437c-2.006-1.054-4.216-1.581-6.63-1.581-2.584 0-4.913.595-6.987 1.785a13.206 13.206 0 00-4.922 4.896c-1.207 2.074-1.81 4.42-1.81 7.038 0 2.618.603 4.964 1.81 7.038a13.4 13.4 0 004.922 4.922c2.074 1.207 4.403 1.81 6.987 1.81zm18.152-29.172c1.258 0 2.312-.416 3.162-1.25.85-.832 1.275-1.861 1.275-3.085s-.425-2.252-1.275-3.085c-.85-.834-1.904-1.25-3.162-1.25s-2.312.416-3.162 1.25c-.85.832-1.275 1.861-1.275 3.085s.425 2.252 1.275 3.085c.85.834 1.904 1.25 3.162 1.25zM613.216 136v-25.755h-7.242V136h7.242zm17.693.867c2.856 0 5.279-.518 7.268-1.555 1.988-1.038 3.612-2.542 4.87-4.514l-5.814-3.774c-.782 1.258-1.674 2.159-2.677 2.703-1.004.544-2.117.816-3.341.816-1.768 0-3.239-.459-4.412-1.377-1.173-.918-1.929-2.21-2.269-3.876h19.278v-2.703c0-2.516-.553-4.769-1.658-6.758a12.302 12.302 0 00-4.615-4.717c-1.972-1.156-4.284-1.734-6.936-1.734-2.584 0-4.904.612-6.962 1.836a13.519 13.519 0 00-4.87 4.921c-1.19 2.057-1.785 4.344-1.785 6.86 0 2.652.604 5.023 1.81 7.114a13.23 13.23 0 004.973 4.947c2.108 1.207 4.488 1.811 7.14 1.811zm5.406-16.728h-11.628c.442-1.36 1.173-2.44 2.193-3.239 1.02-.799 2.261-1.198 3.723-1.198 1.53 0 2.788.408 3.774 1.224.986.816 1.632 1.887 1.938 3.213zM654.824 136v-14.79c0-1.632.442-2.898 1.326-3.8.884-.9 2.04-1.351 3.468-1.351s2.584.45 3.468 1.352c.884.9 1.326 2.167 1.326 3.799V136h7.242v-14.892c0-3.74-1.063-6.63-3.188-8.67s-5.074-3.06-8.848-3.06c-3.774 0-6.724 1.02-8.849 3.06s-3.187 4.93-3.187 8.67V136h7.242zm34.064.867c2.516 0 4.769-.535 6.757-1.606 1.99-1.071 3.562-2.593 4.718-4.565l-5.967-3.876c-1.292 2.074-3.111 3.111-5.457 3.111-1.87 0-3.4-.638-4.59-1.913-1.19-1.274-1.785-2.915-1.785-4.921 0-2.006.595-3.638 1.785-4.896s2.72-1.887 4.59-1.887c2.312 0 4.131.986 5.457 2.958l5.916-3.876a12.294 12.294 0 00-4.794-4.437c-2.006-1.054-4.216-1.581-6.63-1.581-2.584 0-4.913.595-6.987 1.785a13.206 13.206 0 00-4.921 4.896c-1.207 2.074-1.811 4.42-1.811 7.038 0 2.618.604 4.964 1.81 7.038a13.4 13.4 0 004.922 4.922c2.074 1.207 4.403 1.81 6.987 1.81zm27.434 0c2.856 0 5.279-.518 7.268-1.555 1.988-1.038 3.612-2.542 4.87-4.514l-5.814-3.774c-.782 1.258-1.674 2.159-2.678 2.703-1.002.544-2.116.816-3.34.816-1.768 0-3.239-.459-4.412-1.377-1.173-.918-1.929-2.21-2.269-3.876h19.278v-2.703c0-2.516-.553-4.769-1.658-6.758a12.302 12.302 0 00-4.615-4.717c-1.972-1.156-4.284-1.734-6.936-1.734-2.584 0-4.904.612-6.962 1.836a13.519 13.519 0 00-4.87 4.921c-1.19 2.057-1.785 4.344-1.785 6.86 0 2.652.604 5.023 1.81 7.114a13.23 13.23 0 004.973 4.947c2.108 1.207 4.488 1.811 7.14 1.811zm5.406-16.728H710.1c.442-1.36 1.173-2.44 2.193-3.239 1.02-.799 2.261-1.198 3.723-1.198 1.53 0 2.788.408 3.774 1.224.986.816 1.632 1.887 1.938 3.213zm21.671 16.728c3.468 0 6.188-.782 8.16-2.346 1.972-1.564 2.958-3.74 2.958-6.528 0-4.42-2.89-7.038-8.67-7.854l-3.264-.459c-1.564-.238-2.346-.935-2.346-2.091 0-.68.323-1.215.969-1.606.646-.392 1.496-.587 2.55-.587 2.108 0 3.876.85 5.304 2.55l4.743-3.876c-1.054-1.428-2.49-2.567-4.31-3.417a13.394 13.394 0 00-5.737-1.275c-3.298 0-5.933.765-7.905 2.295-1.972 1.53-2.958 3.57-2.958 6.12 0 4.59 2.72 7.293 8.16 8.109l3.672.561c1.666.238 2.499.901 2.499 1.989 0 .748-.323 1.334-.969 1.76-.646.425-1.564.637-2.754.637-2.55 0-4.743-1.071-6.579-3.213l-4.998 4.029c.986 1.564 2.524 2.822 4.615 3.774s4.378 1.428 6.86 1.428z"></path> </g> </svg>